<?xml version="1.0" encoding="UTF-8"?>
<svg xmlns="http://www.w3.org/2000/svg" xmlns:xlink="http://www.w3.org/1999/xlink" width="1200pt" height="1200pt" viewBox="0 0 1200 1200">
<defs>
<g>
<g id="glyph-0-0">
<path d="M 3.640625 0 L 3.640625 -30.703125 L 10.75 -30.703125 L 10.75 -5.796875 L 26.140625 -5.796875 L 26.140625 0 Z M 3.640625 0 "/>
</g>
<g id="glyph-0-1">
<path d="M -0.390625 0 L 13.296875 -30.703125 L 20.3125 -30.703125 L 34.03125 0 L 26.578125 0 L 15.34375 -27.109375 L 18.15625 -27.109375 L 6.890625 0 Z M 6.453125 -6.578125 L 8.328125 -11.96875 L 24.125 -11.96875 L 26.046875 -6.578125 Z M 6.453125 -6.578125 "/>
</g>
<g id="glyph-0-2">
</g>
<g id="glyph-0-3">
<path d="M 18.328125 0.53125 C 15.960938 0.53125 13.765625 0.144531 11.734375 -0.625 C 9.703125 -1.40625 7.9375 -2.507812 6.4375 -3.9375 C 4.945312 -5.375 3.785156 -7.054688 2.953125 -8.984375 C 2.117188 -10.921875 1.703125 -13.039062 1.703125 -15.34375 C 1.703125 -17.65625 2.117188 -19.773438 2.953125 -21.703125 C 3.785156 -23.640625 4.957031 -25.320312 6.46875 -26.75 C 7.976562 -28.1875 9.738281 -29.289062 11.75 -30.0625 C 13.769531 -30.84375 15.976562 -31.234375 18.375 -31.234375 C 21.039062 -31.234375 23.445312 -30.769531 25.59375 -29.84375 C 27.738281 -28.925781 29.546875 -27.578125 31.015625 -25.796875 L 26.453125 -21.578125 C 25.398438 -22.773438 24.226562 -23.671875 22.9375 -24.265625 C 21.65625 -24.867188 20.253906 -25.171875 18.734375 -25.171875 C 17.296875 -25.171875 15.976562 -24.9375 14.78125 -24.46875 C 13.582031 -24 12.539062 -23.328125 11.65625 -22.453125 C 10.78125 -21.578125 10.101562 -20.539062 9.625 -19.34375 C 9.144531 -18.144531 8.90625 -16.8125 8.90625 -15.34375 C 8.90625 -13.882812 9.144531 -12.554688 9.625 -11.359375 C 10.101562 -10.160156 10.78125 -9.125 11.65625 -8.25 C 12.539062 -7.375 13.582031 -6.703125 14.78125 -6.234375 C 15.976562 -5.765625 17.296875 -5.53125 18.734375 -5.53125 C 20.253906 -5.53125 21.65625 -5.828125 22.9375 -6.421875 C 24.226562 -7.023438 25.398438 -7.941406 26.453125 -9.171875 L 31.015625 -4.953125 C 29.546875 -3.171875 27.738281 -1.8125 25.59375 -0.875 C 23.445312 0.0585938 21.023438 0.53125 18.328125 0.53125 Z M 18.328125 0.53125 "/>
</g>
<g id="glyph-0-4">
<path d="M 3.640625 0 L 3.640625 -30.703125 L 10.75 -30.703125 L 10.75 0 Z M 3.640625 0 "/>
</g>
<g id="glyph-0-5">
<path d="M 17.28125 0.53125 C 12.925781 0.53125 9.519531 -0.679688 7.0625 -3.109375 C 4.601562 -5.535156 3.375 -9.003906 3.375 -13.515625 L 3.375 -30.703125 L 10.484375 -30.703125 L 10.484375 -13.765625 C 10.484375 -10.847656 11.082031 -8.742188 12.28125 -7.453125 C 13.476562 -6.171875 15.160156 -5.53125 17.328125 -5.53125 C 19.484375 -5.53125 21.160156 -6.171875 22.359375 -7.453125 C 23.566406 -8.742188 24.171875 -10.847656 24.171875 -13.765625 L 24.171875 -30.703125 L 31.1875 -30.703125 L 31.1875 -13.515625 C 31.1875 -9.003906 29.957031 -5.535156 27.5 -3.109375 C 25.039062 -0.679688 21.632812 0.53125 17.28125 0.53125 Z M 17.28125 0.53125 "/>
</g>
<g id="glyph-0-6">
<path d="M 3.640625 0 L 3.640625 -30.703125 L 17.59375 -30.703125 C 20.925781 -30.703125 23.863281 -30.066406 26.40625 -28.796875 C 28.945312 -27.523438 30.929688 -25.75 32.359375 -23.46875 C 33.796875 -21.1875 34.515625 -18.476562 34.515625 -15.34375 C 34.515625 -12.25 33.796875 -9.550781 32.359375 -7.25 C 30.929688 -4.957031 28.945312 -3.175781 26.40625 -1.90625 C 23.863281 -0.632812 20.925781 0 17.59375 0 Z M 10.75 -5.828125 L 17.234375 -5.828125 C 19.285156 -5.828125 21.0625 -6.210938 22.5625 -6.984375 C 24.070312 -7.765625 25.242188 -8.867188 26.078125 -10.296875 C 26.910156 -11.734375 27.328125 -13.414062 27.328125 -15.34375 C 27.328125 -17.3125 26.910156 -19.003906 26.078125 -20.421875 C 25.242188 -21.835938 24.070312 -22.929688 22.5625 -23.703125 C 21.0625 -24.484375 19.285156 -24.875 17.234375 -24.875 L 10.75 -24.875 Z M 10.75 -5.828125 "/>
</g>
<g id="glyph-0-7">
<path d="M 3.640625 0 L 3.640625 -30.703125 L 26.84375 -30.703125 L 26.84375 -25 L 10.703125 -25 L 10.703125 -5.703125 L 27.40625 -5.703125 L 27.40625 0 Z M 10.171875 -12.8125 L 10.171875 -18.328125 L 24.953125 -18.328125 L 24.953125 -12.8125 Z M 10.171875 -12.8125 "/>
</g>
<g id="glyph-0-8">
<path d="M 13.734375 0.53125 C 11.273438 0.53125 8.921875 0.199219 6.671875 -0.453125 C 4.421875 -1.117188 2.609375 -1.976562 1.234375 -3.03125 L 3.640625 -8.375 C 4.953125 -7.4375 6.507812 -6.664062 8.3125 -6.0625 C 10.113281 -5.46875 11.929688 -5.171875 13.765625 -5.171875 C 15.171875 -5.171875 16.304688 -5.3125 17.171875 -5.59375 C 18.035156 -5.875 18.671875 -6.257812 19.078125 -6.75 C 19.484375 -7.25 19.6875 -7.820312 19.6875 -8.46875 C 19.6875 -9.28125 19.363281 -9.925781 18.71875 -10.40625 C 18.082031 -10.894531 17.238281 -11.289062 16.1875 -11.59375 C 15.132812 -11.90625 13.972656 -12.195312 12.703125 -12.46875 C 11.429688 -12.75 10.15625 -13.09375 8.875 -13.5 C 7.601562 -13.914062 6.441406 -14.441406 5.390625 -15.078125 C 4.335938 -15.722656 3.484375 -16.570312 2.828125 -17.625 C 2.171875 -18.675781 1.84375 -20.023438 1.84375 -21.671875 C 1.84375 -23.421875 2.316406 -25.019531 3.265625 -26.46875 C 4.210938 -27.914062 5.644531 -29.070312 7.5625 -29.9375 C 9.476562 -30.800781 11.882812 -31.234375 14.78125 -31.234375 C 16.707031 -31.234375 18.609375 -31.003906 20.484375 -30.546875 C 22.359375 -30.097656 24.007812 -29.421875 25.4375 -28.515625 L 23.25 -23.109375 C 21.8125 -23.929688 20.375 -24.539062 18.9375 -24.9375 C 17.507812 -25.332031 16.109375 -25.53125 14.734375 -25.53125 C 13.359375 -25.53125 12.234375 -25.367188 11.359375 -25.046875 C 10.484375 -24.722656 9.851562 -24.304688 9.46875 -23.796875 C 9.09375 -23.285156 8.90625 -22.691406 8.90625 -22.015625 C 8.90625 -21.222656 9.222656 -20.585938 9.859375 -20.109375 C 10.503906 -19.628906 11.351562 -19.242188 12.40625 -18.953125 C 13.457031 -18.660156 14.617188 -18.363281 15.890625 -18.0625 C 17.171875 -17.769531 18.445312 -17.429688 19.71875 -17.046875 C 20.988281 -16.671875 22.148438 -16.160156 23.203125 -15.515625 C 24.253906 -14.878906 25.109375 -14.035156 25.765625 -12.984375 C 26.421875 -11.929688 26.75 -10.597656 26.75 -8.984375 C 26.75 -7.265625 26.265625 -5.6875 25.296875 -4.25 C 24.335938 -2.820312 22.898438 -1.664062 20.984375 -0.78125 C 19.066406 0.0898438 16.648438 0.53125 13.734375 0.53125 Z M 13.734375 0.53125 "/>
</g>
<g id="glyph-0-9">
<path d="M 10 0 L 10 -24.90625 L 0.171875 -24.90625 L 0.171875 -30.703125 L 26.9375 -30.703125 L 26.9375 -24.90625 L 17.109375 -24.90625 L 17.109375 0 Z M 10 0 "/>
</g>
<g id="glyph-0-10">
<path d="M -0.390625 0 L 13.296875 -30.703125 L 20.3125 -30.703125 L 34.03125 0 L 26.578125 0 L 15.34375 -27.109375 L 18.15625 -27.109375 L 6.890625 0 Z M 6.453125 -6.578125 L 8.328125 -11.96875 L 24.125 -11.96875 L 26.046875 -6.578125 Z M 12.8125 -33.203125 L 18.734375 -39.515625 L 26.09375 -39.515625 L 18.15625 -33.203125 Z M 12.8125 -33.203125 "/>
</g>
<g id="glyph-0-11">
<path d="M 3.640625 0 L 3.640625 -30.703125 L 9.515625 -30.703125 L 22.59375 -9.03125 L 19.46875 -9.03125 L 32.328125 -30.703125 L 38.15625 -30.703125 L 38.25 0 L 31.578125 0 L 31.53125 -20.484375 L 32.765625 -20.484375 L 22.5 -3.25 L 19.296875 -3.25 L 8.8125 -20.484375 L 10.3125 -20.484375 L 10.3125 0 Z M 3.640625 0 "/>
</g>
<g id="glyph-0-12">
<path d="M 3.640625 0 L 3.640625 -30.703125 L 16.75 -30.703125 C 21.019531 -30.703125 24.335938 -29.710938 26.703125 -27.734375 C 29.078125 -25.765625 30.265625 -23.039062 30.265625 -19.5625 C 30.265625 -17.28125 29.722656 -15.3125 28.640625 -13.65625 C 27.554688 -12.007812 26.019531 -10.742188 24.03125 -9.859375 C 22.039062 -8.984375 19.675781 -8.546875 16.9375 -8.546875 L 7.59375 -8.546875 L 10.75 -11.671875 L 10.75 0 Z M 23.15625 0 L 15.484375 -11.140625 L 23.0625 -11.140625 L 30.828125 0 Z M 10.75 -10.875 L 7.59375 -14.203125 L 16.53125 -14.203125 C 18.726562 -14.203125 20.363281 -14.675781 21.4375 -15.625 C 22.519531 -16.582031 23.0625 -17.894531 23.0625 -19.5625 C 23.0625 -21.257812 22.519531 -22.570312 21.4375 -23.5 C 20.363281 -24.4375 18.726562 -24.90625 16.53125 -24.90625 L 7.59375 -24.90625 L 10.75 -28.296875 Z M 10.75 -10.875 "/>
</g>
<g id="glyph-0-13">
<path d="M 3.640625 0 L 3.640625 -30.703125 L 9.515625 -30.703125 L 27.625 -8.59375 L 24.78125 -8.59375 L 24.78125 -30.703125 L 31.796875 -30.703125 L 31.796875 0 L 25.96875 0 L 7.8125 -22.109375 L 10.65625 -22.109375 L 10.65625 0 Z M 3.640625 0 "/>
</g>
<g id="glyph-0-14">
<path d="M 18.546875 0.53125 C 16.117188 0.53125 13.875 0.132812 11.8125 -0.65625 C 9.757812 -1.445312 7.976562 -2.554688 6.46875 -3.984375 C 4.957031 -5.421875 3.785156 -7.101562 2.953125 -9.03125 C 2.117188 -10.96875 1.703125 -13.070312 1.703125 -15.34375 C 1.703125 -17.625 2.117188 -19.726562 2.953125 -21.65625 C 3.785156 -23.59375 4.960938 -25.273438 6.484375 -26.703125 C 8.003906 -28.140625 9.785156 -29.253906 11.828125 -30.046875 C 13.878906 -30.835938 16.109375 -31.234375 18.515625 -31.234375 C 20.941406 -31.234375 23.171875 -30.835938 25.203125 -30.046875 C 27.234375 -29.253906 29 -28.140625 30.5 -26.703125 C 32.007812 -25.273438 33.1875 -23.601562 34.03125 -21.6875 C 34.882812 -19.769531 35.3125 -17.65625 35.3125 -15.34375 C 35.3125 -13.070312 34.882812 -10.960938 34.03125 -9.015625 C 33.1875 -7.066406 32.007812 -5.382812 30.5 -3.96875 C 29 -2.550781 27.234375 -1.445312 25.203125 -0.65625 C 23.171875 0.132812 20.953125 0.53125 18.546875 0.53125 Z M 18.515625 -5.53125 C 19.878906 -5.53125 21.140625 -5.765625 22.296875 -6.234375 C 23.453125 -6.703125 24.46875 -7.375 25.34375 -8.25 C 26.226562 -9.125 26.910156 -10.160156 27.390625 -11.359375 C 27.867188 -12.554688 28.109375 -13.882812 28.109375 -15.34375 C 28.109375 -16.8125 27.867188 -18.144531 27.390625 -19.34375 C 26.910156 -20.539062 26.238281 -21.578125 25.375 -22.453125 C 24.507812 -23.328125 23.488281 -24 22.3125 -24.46875 C 21.144531 -24.9375 19.878906 -25.171875 18.515625 -25.171875 C 17.140625 -25.171875 15.875 -24.9375 14.71875 -24.46875 C 13.5625 -24 12.539062 -23.328125 11.65625 -22.453125 C 10.78125 -21.578125 10.101562 -20.539062 9.625 -19.34375 C 9.144531 -18.144531 8.90625 -16.8125 8.90625 -15.34375 C 8.90625 -13.914062 9.144531 -12.59375 9.625 -11.375 C 10.101562 -10.164062 10.773438 -9.125 11.640625 -8.25 C 12.503906 -7.375 13.519531 -6.703125 14.6875 -6.234375 C 15.863281 -5.765625 17.140625 -5.53125 18.515625 -5.53125 Z M 18.515625 -5.53125 "/>
</g>
<g id="glyph-0-15">
<path d="M 5.75 0.34375 C 4.570312 0.34375 3.566406 -0.0546875 2.734375 -0.859375 C 1.898438 -1.660156 1.484375 -2.691406 1.484375 -3.953125 C 1.484375 -5.203125 1.898438 -6.210938 2.734375 -6.984375 C 3.566406 -7.765625 4.570312 -8.15625 5.75 -8.15625 C 6.945312 -8.15625 7.953125 -7.765625 8.765625 -6.984375 C 9.585938 -6.210938 10 -5.203125 10 -3.953125 C 10 -2.691406 9.585938 -1.660156 8.765625 -0.859375 C 7.953125 -0.0546875 6.945312 0.34375 5.75 0.34375 Z M 5.75 0.34375 "/>
</g>
</g>
</defs>
<rect x="-120" y="-120" width="1440" height="1440" fill="rgb(0%, 0%, 0%)" fill-opacity="1"/>
<path fill-rule="nonzero" fill="rgb(100%, 100%, 100%)" fill-opacity="1" d="M 557.441406 393.285156 L 132.492188 327.640625 L 132.492188 872.359375 L 557.441406 805.566406 L 172.796875 819.382812 L 172.796875 377.160156 Z M 557.441406 393.285156 "/>
<path fill-rule="nonzero" fill="rgb(100%, 100%, 100%)" fill-opacity="1" d="M 250.8125 555.234375 C 249.34375 555.746094 247.339844 556.0625 244.804688 556.1875 C 240.519531 556.390625 236.148438 555.757812 231.695312 554.296875 C 227.292969 552.855469 223.339844 550.855469 219.828125 548.308594 L 211.933594 572.949219 C 215.582031 575.855469 220.28125 578.195312 226.0625 579.96875 C 231.929688 581.773438 238.097656 582.628906 244.582031 582.519531 C 252.757812 582.382812 259.667969 580.652344 265.246094 577.304688 C 270.898438 573.910156 275.203125 569.449219 278.128906 563.933594 C 281.070312 558.378906 282.546875 552.328125 282.546875 545.804688 C 282.546875 540.199219 281.699219 535.570312 280 531.925781 C 278.308594 528.300781 276.085938 525.441406 273.332031 523.34375 C 270.601562 521.265625 267.628906 519.671875 264.425781 518.558594 C 261.246094 517.457031 258.074219 516.664062 254.902344 516.167969 C 251.753906 515.683594 248.894531 515.222656 246.3125 514.785156 C 243.75 514.355469 241.699219 513.707031 240.152344 512.839844 C 238.613281 511.980469 237.84375 510.679688 237.84375 508.9375 C 237.84375 507.777344 238.152344 506.683594 238.777344 505.644531 C 239.398438 504.609375 240.445312 503.71875 241.917969 502.96875 C 243.394531 502.21875 245.402344 501.699219 247.9375 501.414062 C 251.394531 501.023438 254.976562 501.257812 258.6875 502.128906 C 262.425781 503.007812 266.335938 504.53125 270.421875 506.707031 L 278.910156 479.789062 C 274.507812 477.25 269.59375 475.613281 264.195312 474.875 C 258.859375 474.148438 253.515625 474.175781 248.164062 474.949219 C 240.152344 476.109375 233.570312 478.601562 228.359375 482.40625 C 223.214844 486.164062 219.390625 490.722656 216.847656 496.097656 C 214.320312 501.4375 213.066406 507.148438 213.066406 513.242188 C 213.066406 518.5 213.789062 522.816406 215.238281 526.214844 C 216.691406 529.621094 218.621094 532.320312 221.035156 534.308594 C 223.464844 536.308594 226.152344 537.871094 229.113281 539 C 232.089844 540.136719 235.074219 541.019531 238.0625 541.636719 C 241.070312 542.265625 243.859375 542.863281 246.425781 543.429688 C 249.007812 544 251.09375 544.78125 252.683594 545.765625 C 254.277344 546.753906 255.074219 548.191406 255.074219 550.0625 C 255.074219 551.246094 254.730469 552.28125 254.046875 553.152344 C 253.363281 554.023438 252.285156 554.71875 250.8125 555.234375 "/>
<path fill-rule="nonzero" fill="rgb(100%, 100%, 100%)" fill-opacity="1" d="M 309.144531 578.917969 L 340.71875 578.300781 L 340.71875 494.003906 L 369.996094 490.785156 L 369.996094 460.007812 L 283.402344 472.300781 L 283.402344 500.304688 L 309.144531 497.472656 Z M 309.144531 578.917969 "/>
<path fill-rule="nonzero" fill="rgb(100%, 100%, 100%)" fill-opacity="1" d="M 442.121094 486.652344 C 444.792969 489.027344 446.136719 492.515625 446.136719 497.113281 C 446.136719 501.710938 444.792969 505.460938 442.121094 508.34375 C 439.460938 511.214844 435.382812 512.871094 429.925781 513.3125 L 415.828125 514.460938 L 415.828125 485.570312 L 429.925781 484.015625 C 435.382812 483.417969 439.460938 484.292969 442.121094 486.652344 M 415.828125 545.824219 L 426.328125 545.292969 L 446.308594 576.234375 L 491.433594 575.351562 L 464.660156 536.105469 C 471.679688 531.972656 477.289062 526.570312 481.4375 519.910156 C 486.226562 512.214844 488.636719 503.242188 488.636719 493.042969 C 488.636719 477.679688 483.457031 466.15625 473.246094 458.578125 C 463.226562 451.144531 448.945312 448.804688 430.757812 451.386719 L 379.0625 458.722656 L 379.0625 577.550781 L 415.828125 576.832031 Z M 415.828125 545.824219 "/>
<path fill-rule="nonzero" fill="rgb(100%, 100%, 100%)" fill-opacity="1" d="M 629.632812 534.636719 L 551.789062 538.582031 L 551.789062 520.183594 L 616.9375 515.835938 L 616.9375 479.910156 L 551.789062 486.191406 L 551.789062 469.796875 L 626.550781 461.515625 L 626.550781 423.597656 L 505.433594 440.789062 L 505.433594 575.078125 L 629.632812 572.648438 Z M 629.632812 534.636719 "/>
<path fill-rule="nonzero" fill="rgb(100%, 100%, 100%)" fill-opacity="1" d="M 813.566406 525.3125 L 711.5 530.488281 L 711.5 509.523438 L 796.789062 503.828125 L 796.789062 462.558594 L 711.5 470.785156 L 711.5 452.101562 L 809.488281 441.242188 L 809.488281 397.632812 L 651.636719 420.039062 L 651.636719 572.21875 L 813.566406 569.050781 Z M 813.566406 525.3125 "/>
<path fill-rule="nonzero" fill="rgb(100%, 100%, 100%)" fill-opacity="1" d="M 825.613281 395.34375 L 825.613281 440.695312 L 894.367188 433.136719 L 894.367188 567.46875 L 982.265625 565.75 L 982.265625 423.472656 L 1067.507812 414.101562 L 1067.507812 361.015625 Z M 825.613281 395.34375 "/>
<path fill-rule="nonzero" fill="rgb(100%, 100%, 100%)" fill-opacity="1" d="M 257.316406 670.664062 L 237.351562 605.613281 L 208.652344 605.300781 L 242.296875 714.800781 L 270.707031 718.828125 L 309.898438 606.40625 L 278.890625 606.066406 Z M 257.316406 670.664062 "/>
<path fill-rule="nonzero" fill="rgb(100%, 100%, 100%)" fill-opacity="1" d="M 313.089844 724.835938 L 347.226562 729.671875 L 347.226562 606.8125 L 313.089844 606.441406 Z M 313.089844 724.835938 "/>
<path fill-rule="nonzero" fill="rgb(100%, 100%, 100%)" fill-opacity="1" d="M 451.355469 671.902344 C 447.109375 668.621094 442.507812 665.917969 437.554688 663.785156 C 432.644531 661.679688 427.757812 659.972656 422.886719 658.65625 C 418.058594 657.355469 413.683594 656.152344 409.738281 655.042969 C 405.828125 653.949219 402.703125 652.683594 400.351562 651.25 C 398.011719 649.828125 396.847656 648.007812 396.847656 645.792969 C 396.847656 644.3125 397.316406 642.980469 398.261719 641.792969 C 399.207031 640.601562 400.796875 639.679688 403.042969 639.035156 C 405.292969 638.386719 408.347656 638.140625 412.222656 638.300781 C 417.511719 638.519531 423.003906 639.570312 428.703125 641.464844 C 434.46875 643.382812 440.507812 646.164062 446.835938 649.832031 L 460.039062 616.894531 C 453.179688 612.726562 445.550781 609.632812 437.195312 607.605469 C 428.96875 605.609375 420.757812 604.589844 412.566406 604.523438 C 400.351562 604.429688 390.371094 606.308594 382.5 610.113281 C 374.75 613.863281 369.007812 618.875 365.199219 625.164062 C 361.417969 631.410156 359.542969 638.363281 359.542969 646.066406 C 359.542969 652.707031 360.625 658.316406 362.789062 662.917969 C 364.964844 667.539062 367.855469 671.375 371.476562 674.414062 C 375.125 677.484375 379.171875 680.058594 383.632812 682.144531 C 388.132812 684.25 392.648438 686.035156 397.179688 687.492188 C 401.75 688.964844 406 690.355469 409.910156 691.65625 C 413.855469 692.972656 417.050781 694.441406 419.480469 696.0625 C 421.925781 697.695312 423.148438 699.714844 423.148438 702.113281 C 423.148438 703.632812 422.625 704.875 421.574219 705.832031 C 420.527344 706.792969 418.871094 707.429688 416.617188 707.75 C 414.371094 708.066406 411.304688 708.007812 407.441406 707.578125 C 400.910156 706.851562 394.273438 705.042969 387.535156 702.164062 C 380.886719 699.328125 374.9375 695.898438 369.664062 691.878906 L 357.851562 721.238281 C 363.304688 725.765625 370.34375 729.832031 379.039062 733.457031 C 387.886719 737.144531 397.234375 739.71875 407.101562 741.144531 C 419.597656 742.953125 430.214844 742.417969 438.820312 739.476562 C 447.570312 736.480469 454.261719 731.777344 458.816406 725.359375 C 463.40625 718.890625 465.71875 711.417969 465.71875 702.984375 C 465.71875 695.738281 464.386719 689.558594 461.734375 684.46875 C 459.097656 679.402344 455.632812 675.214844 451.355469 671.902344 "/>
<path fill-rule="nonzero" fill="rgb(100%, 100%, 100%)" fill-opacity="1" d="M 479.210938 748.378906 L 527.363281 755.203125 L 527.363281 608.785156 L 479.210938 608.257812 Z M 479.210938 748.378906 "/>
<path fill-rule="nonzero" fill="rgb(100%, 100%, 100%)" fill-opacity="1" d="M 678.882812 711.015625 C 676.691406 715.953125 673.636719 720.003906 669.742188 723.160156 C 665.871094 726.296875 661.402344 728.527344 656.34375 729.863281 C 651.324219 731.183594 645.957031 731.527344 640.246094 730.90625 C 634.589844 730.289062 629.363281 728.808594 624.558594 726.46875 C 619.792969 724.148438 615.644531 721.117188 612.097656 717.375 C 608.570312 713.65625 605.839844 709.285156 603.890625 704.261719 C 601.945312 699.253906 600.976562 693.707031 600.976562 687.613281 C 600.976562 681.519531 601.945312 676.121094 603.890625 671.410156 C 605.839844 666.683594 608.570312 662.730469 612.097656 659.550781 C 615.644531 656.347656 619.792969 653.949219 624.558594 652.359375 C 629.363281 650.753906 634.589844 650.066406 640.246094 650.3125 C 645.957031 650.5625 651.324219 651.726562 656.34375 653.816406 C 661.402344 655.921875 665.871094 658.835938 669.742188 662.566406 C 673.636719 666.316406 676.691406 670.832031 678.882812 676.105469 C 681.085938 681.398438 682.191406 687.304688 682.191406 693.8125 C 682.191406 700.320312 681.085938 706.0625 678.882812 711.015625 M 717.972656 632.285156 C 707.734375 623.992188 695.871094 617.605469 682.464844 613.097656 C 669.335938 608.683594 655.238281 606.453125 640.246094 606.332031 C 625.777344 606.21875 612.671875 608.140625 600.855469 612.039062 C 589.265625 615.863281 579.417969 621.28125 571.226562 628.28125 C 563.148438 635.183594 556.9375 643.28125 552.539062 652.582031 C 548.171875 661.816406 546 672.074219 546 683.417969 C 546 694.617188 548.171875 705.175781 552.539062 715.140625 C 556.9375 725.1875 563.148438 734.265625 571.226562 742.402344 C 579.417969 750.652344 589.265625 757.574219 600.855469 763.167969 C 612.671875 768.871094 625.859375 772.804688 640.503906 774.925781 C 655.324219 777.070312 669.335938 776.976562 682.464844 774.566406 C 695.871094 772.105469 707.734375 767.53125 717.972656 760.800781 C 728.371094 753.960938 736.578125 745.300781 742.511719 734.824219 C 748.496094 724.257812 751.511719 712.328125 751.511719 699.105469 C 751.511719 685.714844 748.496094 673.28125 742.511719 661.882812 C 736.578125 650.585938 728.371094 640.710938 717.972656 632.285156 "/>
<path fill-rule="nonzero" fill="rgb(100%, 100%, 100%)" fill-opacity="1" d="M 943.113281 704.636719 L 843.386719 612.238281 L 778.453125 611.527344 L 778.453125 790.792969 L 856.117188 801.800781 L 856.117188 715.664062 L 957.683594 816.195312 L 1041.226562 828.035156 L 1041.226562 614.398438 L 943.113281 613.328125 Z M 943.113281 704.636719 "/>
<g fill="rgb(100%, 100%, 100%)" fill-opacity="1">
<use xlink:href="#glyph-0-0" x="279.2812" y="944.8242"/>
</g>
<g fill="rgb(100%, 100%, 100%)" fill-opacity="1">
<use xlink:href="#glyph-0-1" x="305.951485" y="944.8242"/>
<use xlink:href="#glyph-0-2" x="339.552534" y="944.8242"/>
<use xlink:href="#glyph-0-3" x="351.966499" y="944.8242"/>
<use xlink:href="#glyph-0-4" x="383.725194" y="944.8242"/>
<use xlink:href="#glyph-0-5" x="398.11311" y="944.8242"/>
<use xlink:href="#glyph-0-6" x="432.679203" y="944.8242"/>
</g>
<g fill="rgb(100%, 100%, 100%)" fill-opacity="1">
<use xlink:href="#glyph-0-1" x="468.469146" y="944.8242"/>
<use xlink:href="#glyph-0-6" x="502.070196" y="944.8242"/>
<use xlink:href="#glyph-0-2" x="538.303181" y="944.8242"/>
<use xlink:href="#glyph-0-7" x="550.717146" y="944.8242"/>
<use xlink:href="#glyph-0-8" x="580.150964" y="944.8242"/>
</g>
<g fill="rgb(100%, 100%, 100%)" fill-opacity="1">
<use xlink:href="#glyph-0-9" x="607.698561" y="944.8242"/>
</g>
<g fill="rgb(100%, 100%, 100%)" fill-opacity="1">
<use xlink:href="#glyph-0-10" x="633.272205" y="944.8242"/>
<use xlink:href="#glyph-0-2" x="666.873255" y="944.8242"/>
<use xlink:href="#glyph-0-11" x="679.28722" y="944.8242"/>
<use xlink:href="#glyph-0-4" x="721.178868" y="944.8242"/>
<use xlink:href="#glyph-0-12" x="735.566785" y="944.8242"/>
<use xlink:href="#glyph-0-1" x="767.808001" y="944.8242"/>
<use xlink:href="#glyph-0-13" x="801.40905" y="944.8242"/>
<use xlink:href="#glyph-0-6" x="836.852455" y="944.8242"/>
<use xlink:href="#glyph-0-14" x="873.085441" y="944.8242"/>
</g>
<g fill="rgb(100%, 100%, 100%)" fill-opacity="1">
<use xlink:href="#glyph-0-15" x="909.230695" y="944.8242"/>
</g>
<path fill-rule="nonzero" fill="rgb(100%, 100%, 100%)" fill-opacity="1" d="M 263.023438 284.039062 L 284.027344 288.066406 L 282.957031 339.285156 L 306.609375 343.035156 L 307.519531 292.574219 L 327.351562 296.378906 L 327.625 278.886719 L 263.453125 265.828125 Z M 263.023438 284.039062 "/>
<path fill-rule="nonzero" fill="rgb(100%, 100%, 100%)" fill-opacity="1" d="M 374.914062 311.550781 L 355.113281 307.835938 L 355.398438 284.535156 L 333.414062 280.0625 L 332.417969 347.128906 L 354.59375 350.644531 L 354.890625 326.152344 L 374.738281 329.628906 L 374.507812 353.800781 L 395.460938 357.125 L 395.921875 292.78125 L 375.136719 288.554688 Z M 374.914062 311.550781 "/>
<path fill-rule="nonzero" fill="rgb(100%, 100%, 100%)" fill-opacity="1" d="M 425.175781 345.699219 L 425.207031 337.386719 L 449.546875 341.671875 L 449.554688 326.613281 L 425.257812 322.074219 L 425.285156 314.710938 L 452.855469 320.007812 L 452.859375 304.363281 L 405.75 294.78125 L 405.371094 358.695312 L 453.898438 366.386719 L 453.898438 350.582031 Z M 425.175781 345.699219 "/>
</svg>
